<mxfile host="app.diagrams.net" modified="2022-04-04T10:18:04.666Z" agent="5.0 (Windows NT 10.0; Win64; x64) AppleWebKit/537.36 (KHTML, like Gecko) Chrome/99.0.4844.51 Safari/537.36 Edg/99.0.1150.39" etag="w60ACHEbR6dqwZYKN785" version="17.4.0" type="github">
  <diagram id="Ks93Yk25pe8IFxPy4Esk" name="第 1 页">
    <mxGraphModel dx="1038" dy="573" grid="1" gridSize="10" guides="1" tooltips="1" connect="1" arrows="1" fold="1" page="1" pageScale="1" pageWidth="827" pageHeight="1169" math="0" shadow="0">
      <root>
        <mxCell id="0" />
        <mxCell id="1" parent="0" />
        <mxCell id="J9wLOoATaRRkZ1M6sdYB-5" value="" style="edgeStyle=orthogonalEdgeStyle;rounded=0;orthogonalLoop=1;jettySize=auto;html=1;" edge="1" parent="1" source="J9wLOoATaRRkZ1M6sdYB-1" target="J9wLOoATaRRkZ1M6sdYB-3">
          <mxGeometry relative="1" as="geometry" />
        </mxCell>
        <mxCell id="J9wLOoATaRRkZ1M6sdYB-1" value="Xxxx.java(源文件)" style="rounded=0;whiteSpace=wrap;html=1;" vertex="1" parent="1">
          <mxGeometry x="210" y="90" width="120" height="50" as="geometry" />
        </mxCell>
        <mxCell id="J9wLOoATaRRkZ1M6sdYB-3" value="Xxxx.class(字节码文件)&lt;br&gt;A.class&lt;br&gt;B.class" style="rounded=0;whiteSpace=wrap;html=1;" vertex="1" parent="1">
          <mxGeometry x="210" y="200" width="120" height="60" as="geometry" />
        </mxCell>
        <mxCell id="J9wLOoATaRRkZ1M6sdYB-6" value="javac编译" style="text;html=1;align=center;verticalAlign=middle;resizable=0;points=[];autosize=1;strokeColor=none;fillColor=none;" vertex="1" parent="1">
          <mxGeometry x="280" y="160" width="70" height="20" as="geometry" />
        </mxCell>
        <mxCell id="J9wLOoATaRRkZ1M6sdYB-11" value="编译阶段" style="text;html=1;align=center;verticalAlign=middle;resizable=0;points=[];autosize=1;strokeColor=none;fillColor=none;" vertex="1" parent="1">
          <mxGeometry x="250" y="50" width="60" height="20" as="geometry" />
        </mxCell>
        <mxCell id="J9wLOoATaRRkZ1M6sdYB-14" value="运行阶段" style="text;html=1;align=center;verticalAlign=middle;resizable=0;points=[];autosize=1;strokeColor=none;fillColor=none;" vertex="1" parent="1">
          <mxGeometry x="520" y="40" width="60" height="20" as="geometry" />
        </mxCell>
        <mxCell id="J9wLOoATaRRkZ1M6sdYB-24" value="" style="edgeStyle=orthogonalEdgeStyle;rounded=0;orthogonalLoop=1;jettySize=auto;html=1;" edge="1" parent="1" source="J9wLOoATaRRkZ1M6sdYB-16" target="J9wLOoATaRRkZ1M6sdYB-22">
          <mxGeometry relative="1" as="geometry" />
        </mxCell>
        <mxCell id="J9wLOoATaRRkZ1M6sdYB-16" value="&#xa;&#xa;&lt;span style=&quot;color: rgb(0, 0, 0); font-family: helvetica; font-size: 12px; font-style: normal; font-weight: 400; letter-spacing: normal; text-align: center; text-indent: 0px; text-transform: none; word-spacing: 0px; background-color: rgb(248, 249, 250); display: inline; float: none;&quot;&gt;类加载器classloader&lt;/span&gt;&#xa;&#xa;" style="rounded=0;whiteSpace=wrap;html=1;fillColor=none;" vertex="1" parent="1">
          <mxGeometry x="500" y="80" width="120" height="30" as="geometry" />
        </mxCell>
        <mxCell id="J9wLOoATaRRkZ1M6sdYB-18" value="注意A、B是类名" style="text;html=1;align=center;verticalAlign=middle;resizable=0;points=[];autosize=1;strokeColor=none;fillColor=none;" vertex="1" parent="1">
          <mxGeometry x="210" y="260" width="100" height="20" as="geometry" />
        </mxCell>
        <mxCell id="J9wLOoATaRRkZ1M6sdYB-19" value="" style="endArrow=classic;html=1;rounded=0;entryX=0;entryY=1;entryDx=0;entryDy=0;" edge="1" parent="1" target="J9wLOoATaRRkZ1M6sdYB-16">
          <mxGeometry width="50" height="50" relative="1" as="geometry">
            <mxPoint x="300" y="240" as="sourcePoint" />
            <mxPoint x="350" y="190" as="targetPoint" />
          </mxGeometry>
        </mxCell>
        <mxCell id="J9wLOoATaRRkZ1M6sdYB-20" value="" style="endArrow=none;dashed=1;html=1;dashPattern=1 3;strokeWidth=2;rounded=0;" edge="1" parent="1">
          <mxGeometry width="50" height="50" relative="1" as="geometry">
            <mxPoint x="420" y="300" as="sourcePoint" />
            <mxPoint x="420" y="30" as="targetPoint" />
          </mxGeometry>
        </mxCell>
        <mxCell id="J9wLOoATaRRkZ1M6sdYB-28" value="" style="edgeStyle=orthogonalEdgeStyle;rounded=0;orthogonalLoop=1;jettySize=auto;html=1;" edge="1" parent="1" source="J9wLOoATaRRkZ1M6sdYB-22" target="J9wLOoATaRRkZ1M6sdYB-26">
          <mxGeometry relative="1" as="geometry" />
        </mxCell>
        <mxCell id="J9wLOoATaRRkZ1M6sdYB-22" value="java虚拟机&lt;br&gt;A.class-&amp;gt;Java解释器" style="rounded=0;whiteSpace=wrap;html=1;fillColor=none;" vertex="1" parent="1">
          <mxGeometry x="480" y="135" width="160" height="65" as="geometry" />
        </mxCell>
        <mxCell id="J9wLOoATaRRkZ1M6sdYB-23" value="java 类名&lt;br&gt;java A.class" style="text;html=1;align=center;verticalAlign=middle;resizable=0;points=[];autosize=1;strokeColor=none;fillColor=none;" vertex="1" parent="1">
          <mxGeometry x="340" y="205" width="80" height="30" as="geometry" />
        </mxCell>
        <mxCell id="J9wLOoATaRRkZ1M6sdYB-25" value="硬件平台" style="rounded=0;whiteSpace=wrap;html=1;fillColor=none;" vertex="1" parent="1">
          <mxGeometry x="500" y="280" width="120" height="30" as="geometry" />
        </mxCell>
        <mxCell id="J9wLOoATaRRkZ1M6sdYB-29" value="" style="edgeStyle=orthogonalEdgeStyle;rounded=0;orthogonalLoop=1;jettySize=auto;html=1;" edge="1" parent="1" source="J9wLOoATaRRkZ1M6sdYB-26" target="J9wLOoATaRRkZ1M6sdYB-25">
          <mxGeometry relative="1" as="geometry" />
        </mxCell>
        <mxCell id="J9wLOoATaRRkZ1M6sdYB-26" value="操作系统OS" style="rounded=0;whiteSpace=wrap;html=1;fillColor=none;" vertex="1" parent="1">
          <mxGeometry x="500" y="225" width="120" height="30" as="geometry" />
        </mxCell>
        <mxCell id="J9wLOoATaRRkZ1M6sdYB-30" value="二进制文件" style="text;html=1;align=center;verticalAlign=middle;resizable=0;points=[];autosize=1;strokeColor=none;fillColor=none;" vertex="1" parent="1">
          <mxGeometry x="570" y="205" width="80" height="20" as="geometry" />
        </mxCell>
      </root>
    </mxGraphModel>
  </diagram>
</mxfile>
